<?xml version="1.0" encoding="UTF-8"?>
<!-- V1.5 · V1 friendly silhouette + chunky readable quote marks -->
<svg xmlns="http://www.w3.org/2000/svg" viewBox="0 0 540 140" role="img" aria-label="AEObox">
  <title>AEObox</title>
  <defs>
    <linearGradient id="v15g" x1="0" y1="0" x2="1" y2="1">
      <stop offset="0%" stop-color="#7C5CFF"/>
      <stop offset="100%" stop-color="#00D4FF"/>
    </linearGradient>
    <linearGradient id="v15q" x1="0" y1="0" x2="0" y2="1">
      <stop offset="0%" stop-color="#00D4FF"/>
      <stop offset="100%" stop-color="#7C5CFF"/>
    </linearGradient>
  </defs>

  <!-- ============ MARK [A] · friendly brackets + chunky quotes ============ -->
  <g transform="translate(0, 0)">
    <!-- Left bracket — original V1 rounded stroke -->
    <path d="M 50 24 L 24 24 L 24 116 L 50 116" fill="none" stroke="url(#v15g)" stroke-width="12" stroke-linecap="round" stroke-linejoin="round"/>
    <!-- Right bracket -->
    <path d="M 150 24 L 176 24 L 176 116 L 150 116" fill="none" stroke="url(#v15g)" stroke-width="12" stroke-linecap="round" stroke-linejoin="round"/>
    <!-- A — bolder than V1, classic geometry -->
    <path d="M 60 116 L 100 26 L 140 116" fill="none" stroke="#F5F7FA" stroke-width="13" stroke-linecap="round" stroke-linejoin="round"/>
    <!-- CHUNKY paired quotes — filled, big, readable at small sizes -->
    <path d="M 85 60 Q 78 60 78 70 Q 78 76 82 80 L 87 84 Q 87 80 83 78 Q 83 74 87 72 L 87 64 Q 87 60 85 60 Z" fill="url(#v15q)"/>
    <path d="M 115 84 Q 122 84 122 74 Q 122 68 118 64 L 113 60 Q 113 64 117 66 Q 117 70 113 72 L 113 80 Q 113 84 115 84 Z" fill="url(#v15q)"/>
  </g>

  <!-- ============ WORDMARK · custom-drawn, refined ============ -->
  <g transform="translate(212, 32)" fill="#F5F7FA">
    <!-- A -->
    <path d="M 0 76 L 30 0 L 42 0 L 72 76 L 58 76 L 51 56 L 21 56 L 14 76 Z M 26 46 L 46 46 L 36 19 Z"/>
    <!-- E -->
    <path d="M 88 0 L 138 0 L 138 12 L 100 12 L 100 32 L 130 32 L 130 44 L 100 44 L 100 64 L 138 64 L 138 76 L 88 76 Z"/>
    <!-- O -->
    <path d="M 190 0 C 168 0 153 17 153 38 C 153 59 168 76 190 76 C 212 76 227 59 227 38 C 227 17 212 0 190 0 Z M 190 12 C 204 12 213 23 213 38 C 213 53 204 64 190 64 C 176 64 167 53 167 38 C 167 23 176 12 190 12 Z"/>
    <!-- b -->
    <path d="M 240 0 L 252 0 L 252 30 C 256 26 262 22 272 22 C 287 22 298 35 298 50 C 298 65 287 78 272 78 C 262 78 256 74 252 70 L 252 76 L 240 76 Z M 269 33 C 260 33 252 41 252 50 C 252 59 260 67 269 67 C 278 67 286 59 286 50 C 286 41 278 33 269 33 Z"/>
    <!-- o -->
    <path d="M 332 22 C 317 22 306 35 306 50 C 306 65 317 78 332 78 C 347 78 358 65 358 50 C 358 35 347 22 332 22 Z M 332 33 C 341 33 346 41 346 50 C 346 59 341 67 332 67 C 323 67 318 59 318 50 C 318 41 323 33 332 33 Z"/>
    <!-- x -->
    <path d="M 364 24 L 378 24 L 390 41 L 402 24 L 416 24 L 397 49 L 418 76 L 403 76 L 390 58 L 377 76 L 362 76 L 383 49 Z"/>
  </g>
</svg>
