<?xml version="1.0" encoding="UTF-8"?>
<!-- V4 · PREMIUM MINIMALIST — refined hairline brackets with elegant serif terminals, oversized inverted-comma quotes, wordmark with tracked geometric sans -->
<svg xmlns="http://www.w3.org/2000/svg" viewBox="0 0 540 140" role="img" aria-label="AEObox">
  <title>AEObox</title>
  <defs>
    <linearGradient id="v4g" x1="0" y1="0" x2="1" y2="1">
      <stop offset="0%" stop-color="#7C5CFF"/>
      <stop offset="100%" stop-color="#00D4FF"/>
    </linearGradient>
    <linearGradient id="v4q" x1="0" y1="1" x2="0" y2="0">
      <stop offset="0%" stop-color="#7C5CFF"/>
      <stop offset="100%" stop-color="#00D4FF"/>
    </linearGradient>
  </defs>

  <!-- ============ MARK [A] · refined editorial brackets ============ -->
  <g transform="translate(0, 0)">
    <!-- Left bracket: cleaner, with elegant terminals -->
    <path d="M 58 22 L 24 22 L 24 118 L 58 118 L 58 110 L 34 110 L 34 30 L 58 30 Z" fill="url(#v4g)"/>
    <!-- Right bracket -->
    <path d="M 142 22 L 176 22 L 176 118 L 142 118 L 142 110 L 166 110 L 166 30 L 142 30 Z" fill="url(#v4g)"/>

    <!-- A — slimmer, more refined geometry -->
    <path d="M 100 28 L 64 116 L 78 116 L 86 96 L 114 96 L 122 116 L 136 116 Z M 91 84 L 109 84 L 100 60 Z" fill="#F5F7FA"/>

    <!-- Oversized paired quotes — refined "66 99" inverted-comma style -->
    <g fill="url(#v4q)">
      <!-- Opening "66" — two teardrops -->
      <path d="M 80 58 Q 73 58 73 67 Q 73 72 76 75 L 81 80 L 87 75 Q 90 71 90 65 Q 90 58 84 58 Z"/>
      <path d="M 80 76 L 79 84 L 81 84 L 85 76 Z"/>
      <!-- Closing "99" -->
      <path d="M 120 84 Q 127 84 127 75 Q 127 70 124 67 L 119 62 L 113 67 Q 110 71 110 77 Q 110 84 116 84 Z"/>
      <path d="M 120 66 L 121 58 L 119 58 L 115 66 Z"/>
    </g>
  </g>

  <!-- ============ WORDMARK · tracked geometric premium ============ -->
  <g transform="translate(212, 32)" fill="#F5F7FA">
    <!-- A — refined apex with slightly thinner crossbar -->
    <path d="M 0 76 L 30 0 L 42 0 L 72 76 L 58 76 L 51 56 L 21 56 L 14 76 Z M 26 46 L 46 46 L 36 19 Z"/>
    <!-- E — typographic optical adjustment, middle bar slightly shorter -->
    <path d="M 88 0 L 138 0 L 138 12 L 100 12 L 100 32 L 130 32 L 130 44 L 100 44 L 100 64 L 138 64 L 138 76 L 88 76 Z"/>
    <!-- O — nearly perfect circle, premium feel -->
    <path d="M 190 0 C 168 0 153 17 153 38 C 153 59 168 76 190 76 C 212 76 227 59 227 38 C 227 17 212 0 190 0 Z M 190 12 C 204 12 213 23 213 38 C 213 53 204 64 190 64 C 176 64 167 53 167 38 C 167 23 176 12 190 12 Z"/>
    <!-- b -->
    <path d="M 240 0 L 252 0 L 252 30 C 256 26 262 22 272 22 C 287 22 298 35 298 50 C 298 65 287 78 272 78 C 262 78 256 74 252 70 L 252 76 L 240 76 Z M 269 33 C 260 33 252 41 252 50 C 252 59 260 67 269 67 C 278 67 286 59 286 50 C 286 41 278 33 269 33 Z"/>
    <!-- o -->
    <path d="M 332 22 C 317 22 306 35 306 50 C 306 65 317 78 332 78 C 347 78 358 65 358 50 C 358 35 347 22 332 22 Z M 332 33 C 341 33 346 41 346 50 C 346 59 341 67 332 67 C 323 67 318 59 318 50 C 318 41 323 33 332 33 Z"/>
    <!-- x -->
    <path d="M 364 24 L 378 24 L 390 41 L 402 24 L 416 24 L 397 49 L 418 76 L 403 76 L 390 58 L 377 76 L 362 76 L 383 49 Z"/>
  </g>
</svg>
